<svg width="192" height="56" viewBox="0 0 192 56" fill="none" xmlns="http://www.w3.org/2000/svg">
  <defs>
    <linearGradient id="leafGradient" x1="0%" y1="0%" x2="100%" y2="100%">
      <stop offset="0%" stop-color="#2EE6FF" />
      <stop offset="100%" stop-color="#6D5BFF" />
    </linearGradient>
    <linearGradient id="textGradient" x1="0%" y1="0%" x2="100%" y2="0%">
      <stop offset="0%" stop-color="#35D7FF" />
      <stop offset="100%" stop-color="#7A5BFF" />
    </linearGradient>
  </defs>
  <g>
    <path d="M18 4c1.6 0 2.9 1.3 2.9 2.9 0 2.8-1.9 6-5.8 9.5-3.9-3.5-5.8-6.7-5.8-9.5C9.3 5.3 10.6 4 12.2 4c1.4 0 2.6.9 3.1 2.1C15.4 4.9 16.6 4 18 4z" fill="url(#leafGradient)"/>
    <path d="M10.5 19.5c0-1.2.9-2.1 2.1-2.1h10.8c1.2 0 2.1.9 2.1 2.1 0 2.9-1.3 5.5-3.4 7.3-2.1 1.8-4.8 2.9-7.4 2.9-2.7 0-5.3-1.1-7.4-2.9-2.1-1.8-3.4-4.4-3.4-7.3z" fill="url(#leafGradient)" opacity="0.85"/>
    <circle cx="18" cy="32" r="3" fill="url(#leafGradient)" />
    <circle cx="8" cy="32" r="3" fill="url(#leafGradient)" />
    <circle cx="13" cy="42" r="3" fill="url(#leafGradient)" />
    <path d="M18 35l-5 7M8 35l5 7" stroke="url(#leafGradient)" stroke-width="2" stroke-linecap="round"/>
  </g>
  <text x="44" y="28" font-family="'Space Grotesk', 'Segoe UI', sans-serif" font-size="20" font-weight="600" fill="url(#textGradient)">GrowMind</text>
  <text x="44" y="46" font-family="'Space Grotesk', 'Segoe UI', sans-serif" font-size="18" font-weight="500" fill="url(#textGradient)">AI</text>
</svg>
